PathFileType	4	(X/Y/Z)	C:\Users\Basilio\Documents\Thesis Gigler\squatting_fais\c3dfiles\075\SJ_pre1\markers_experimental.trc
DataRate	CameraRate	NumFrames	NumMarkers	Units	OrigDataRate	OrigDataStartFrame	OrigNumFrames
200.000000	200.000000	4	61	mm	200.000000	205	1642
Frame#	Time	FHD			LBHD			C7			T10			CLAV			LSHO			LUUPA			LMUPA			LDUPA			LLEP			LMEP			LRAD			LUL			LRFIN			RSHO			RUPA1			RMUPA			RDUPA			RLEP			RMEP			RRAD			RUL			RUFIN			LASI			RASI			USACR			LSACR			RSACR			LTHI1			LTHI2			LTHI3			LTHI4			LLFC			LMFC			LTIB1			LTIB2			LTIB3			LTIB4			LLMAL			LMMAL			LHEE			LMT1			LMT2			LMT5			RTHI			RTHI2			RTHI3			RTHI4			RLFC			RMFC			RTIB1			RTIB2			RTIB3			RTIB4			RLMAL			RMMAL			RHEE			RMT1			RMT2			RMT5			RBHD			
		X1	Y1	Z1	X2	Y2	Z2	X3	Y3	Z3	X4	Y4	Z4	X5	Y5	Z5	X6	Y6	Z6	X7	Y7	Z7	X8	Y8	Z8	X9	Y9	Z9	X10	Y10	Z10	X11	Y11	Z11	X12	Y12	Z12	X13	Y13	Z13	X14	Y14	Z14	X15	Y15	Z15	X16	Y16	Z16	X17	Y17	Z17	X18	Y18	Z18	X19	Y19	Z19	X20	Y20	Z20	X21	Y21	Z21	X22	Y22	Z22	X23	Y23	Z23	X24	Y24	Z24	X25	Y25	Z25	X26	Y26	Z26	X27	Y27	Z27	X28	Y28	Z28	X29	Y29	Z29	X30	Y30	Z30	X31	Y31	Z31	X32	Y32	Z32	X33	Y33	Z33	X34	Y34	Z34	X35	Y35	Z35	X36	Y36	Z36	X37	Y37	Z37	X38	Y38	Z38	X39	Y39	Z39	X40	Y40	Z40	X41	Y41	Z41	X42	Y42	Z42	X43	Y43	Z43	X44	Y44	Z44	X45	Y45	Z45	X46	Y46	Z46	X47	Y47	Z47	X48	Y48	Z48	X49	Y49	Z49	X50	Y50	Z50	X51	Y51	Z51	X52	Y52	Z52	X53	Y53	Z53	X54	Y54	Z54	X55	Y55	Z55	X56	Y56	Z56	X57	Y57	Z57	X58	Y58	Z58	X59	Y59	Z59	X60	Y60	Z60	X61	Y61	Z61	

206	1.025	-183.5832824707032	1699.160400390625	-899.3731079101565	-315.2274169921876	1564.6826171875	-968.0826416015627	-351.9297180175782	1456.894775390625	-906.5198364257815	-376.0735778808594	1132.145629882813	-907.2069091796877	-209.2642517089844	1392.826049804688	-902.1782226562502	-251.9108276367188	1428.363159179688	-1061.9892578125	-298.4838562011719	1283.644165039063	-1227.508544921875	-263.9816284179688	1247.051391601563	-1220.01904296875	-295.7488708496094	1225.927856445313	-1267.6123046875	-290.3190612792969	1142.1904296875	-1296.111572265625	-369.2721557617188	1130.62255859375	-1247.9453125	-257.9418640136719	962.8289794921877	-1124.195068359375	-219.9177246093751	924.622009277344	-1177.520263671875	-212.4447631835938	948.8474121093752	-1083.368408203125	-252.0613555908204	1428.866333007813	-741.0845947265626	-311.1033020019532	1282.691284179688	-584.5930786132814	-281.6466979980469	1242.36328125	-587.3546142578126	-320.8344116210938	1224.53564453125	-544.6642456054689	-321.6557617187501	1156.050048828125	-518.1568603515626	-393.8450622558595	1127.645751953125	-553.1527099609376	-263.0835876464844	967.707702636719	-694.1801757812501	-222.2935485839844	942.8162231445315	-634.5805664062501	-203.9877166748047	961.373718261719	-731.3391723632814	-198.8163299560547	943.8045043945315	-1031.583374023438	-197.7010955810547	958.2735595703127	-780.468933105469	-358.7998046875001	1034.0830078125	-909.7100219726565	-365.0357971191407	1001.36572265625	-936.3974609375002	-364.4381408691407	1004.348510742188	-879.2261352539065	-276.0851745605469	719.7915649414064	-1108.364990234375	-254.4607696533204	638.3972167968751	-1107.885864257813	-207.9189758300782	638.9754028320314	-1090.512451171875	-286.9092712402344	588.3314819335939	-1098.77392578125	-301.8684082031251	480.9796752929689	-1087.319946289063	-257.9424133300782	461.8070678710939	-975.5642089843752	-260.6936035156251	353.4850463867188	-1070.55859375	-326.3414916992188	322.1044616699219	-1117.872924804688	-284.6617736816407	311.1986083984376	-1101.654418945313	-291.7493896484376	229.6478118896485	-1077.801025390625	-380.3306884765626	95.77835845947267	-1096.913818359375	-341.2199096679688	100.4840850830078	-1019.918579101563	-428.7555236816407	50.80672073364259	-1052.061157226563	-215.7630767822266	51.4511070251465	-1062.4521484375	-222.6518554687501	56.38846969604494	-1110.986206054688	-267.4322204589844	42.46477508544923	-1159.032958984375	-274.8417358398438	775.3422851562502	-702.6414184570314	-241.0072174072266	719.3977050781251	-701.0823974609376	-210.070541381836	722.5452270507814	-713.8043212890626	-275.6929321289063	640.3741455078126	-704.8807983398439	-299.7572631835938	487.1472473144532	-726.6022949218751	-260.4835815429688	465.1566467285157	-846.103942871094	-262.0224609375001	332.0059814453126	-773.3897094726565	-320.2078552246094	264.1806335449219	-709.1041870117189	-284.2281494140626	253.9241180419922	-738.8840942382814	-294.5725097656251	206.1869201660157	-770.0006103515627	-374.0755615234376	92.47378540039064	-726.1785888671876	-338.3391418457032	107.9030075073242	-806.5369262695315	-420.4841308593751	50.20240020751955	-780.6560058593752	-210.8387451171876	58.05316162109376	-761.1370239257814	-217.3375549316407	58.80351638793947	-719.5661621093751	-256.9874877929688	35.70588302612305	-670.0712890625001	-281.2756042480469	1605.133544921875	-815.1326904296877	
207	1.03	-184.1138305664063	1699.573974609375	-899.552917480469	-315.2590942382813	1564.55859375	-968.0900878906252	-351.8970947265626	1456.891357421875	-906.4759521484377	-376.0196838378907	1132.165161132813	-907.2200317382815	-209.2042083740235	1392.809448242188	-902.183288574219	-252.0191802978516	1428.36083984375	-1061.97216796875	-298.6053161621094	1283.606811523438	-1227.477172851563	-264.0058898925782	1247.0791015625	-1220.036254882813	-295.8310241699219	1225.939208984375	-1267.604370117188	-290.2718200683594	1142.217895507813	-1296.101196289063	-369.4008483886719	1130.651245117188	-1247.899536132813	-257.9833679199219	962.860046386719	-1124.153442382813	-220.1048583984376	924.6343383789065	-1177.572998046875	-212.4959564208985	948.848083496094	-1083.378173828125	-251.9776916503907	1428.853149414063	-741.0812988281251	-311.0346374511719	1282.637084960938	-584.5983886718751	-281.6049804687501	1242.300048828125	-587.3378295898439	-320.7789611816407	1224.512451171875	-544.6827392578126	-321.6159057617188	1156.022216796875	-518.1142578125001	-393.7544555664064	1127.655517578125	-553.1502685546876	-263.1248168945313	967.6705322265627	-694.2106323242189	-222.2952117919922	942.7651367187502	-634.6351928710939	-203.9626617431641	961.3131103515627	-731.3029174804689	-198.8603210449219	943.833435058594	-1031.597778320313	-197.6670684814454	958.294616699219	-780.4476318359377	-358.7057495117188	1034.06787109375	-909.7571411132815	-365.0437011718751	1001.327087402344	-936.3911743164065	-364.4200439453126	1004.336364746094	-879.1481933593752	-276.1647949218751	719.6972656250001	-1108.422729492188	-254.4830780029297	638.4481201171876	-1107.964965820313	-207.8281707763672	638.9402465820314	-1090.525634765625	-286.9471435546876	588.3671875000001	-1098.779418945313	-301.8424072265626	480.9762573242189	-1087.199951171875	-257.9397888183594	461.8080139160157	-975.5818481445315	-261.2485046386719	353.6174621582032	-1071.02783203125	-326.3479919433594	322.1137695312501	-1117.87841796875	-284.7731933593751	311.1713256835938	-1101.640991210938	-291.7286682128907	229.6463317871094	-1077.80859375	-380.2887878417969	95.74771118164064	-1096.919067382813	-341.2559509277344	100.4628143310547	-1019.934753417969	-428.8108825683595	50.78879547119142	-1052.079956054688	-215.7813568115235	51.48829650878908	-1062.527099609375	-222.7641143798829	56.41759109497072	-1111.046264648438	-267.2883911132813	42.40922546386719	-1159.0595703125	-274.8391723632813	775.3191528320315	-702.6285400390626	-241.0042724609376	719.3975219726564	-701.0784912109376	-210.0328826904297	722.5574951171876	-713.7803344726564	-275.6979675292969	640.3530883789064	-704.9379272460939	-299.7754211425782	487.1492309570314	-726.6255493164064	-260.4272766113282	465.1234130859376	-846.062683105469	-262.0409851074219	332.0332946777344	-773.3960571289065	-320.1863403320313	264.1523742675782	-709.0988159179689	-284.2241516113282	253.9378204345704	-738.8692626953126	-294.4639892578126	206.2192840576172	-769.9281005859377	-374.0920104980469	92.50607299804689	-726.1824340820314	-338.3852844238282	107.9087677001953	-806.523376464844	-420.439422607422	50.17307662963869	-780.6607666015627	-210.799301147461	58.04999923706056	-761.1524047851564	-217.3186492919922	58.84354782104494	-719.5692138671876	-256.9932250976563	35.70414352416993	-670.0775146484376	-281.2116394042969	1605.160278320313	-815.0879516601565	
208	1.035	-183.8123626708985	1699.337646484375	-899.5278930664065	-315.2037353515626	1564.53564453125	-967.9677734375002	-351.8460388183594	1456.875	-906.466247558594	-376.0649414062501	1132.163940429688	-907.1975708007815	-209.6269226074219	1392.901611328125	-902.4785766601565	-252.0274810791016	1428.364868164063	-1061.977783203125	-298.7265625000001	1283.66845703125	-1227.484375	-264.0870361328126	1247.043579101563	-1219.991577148438	-296.2152709960938	1225.99267578125	-1267.613891601563	-290.5548400878907	1142.218139648438	-1296.0849609375	-369.4762573242188	1130.653442382813	-1247.93994140625	-258.0285339355469	962.8989868164065	-1124.177368164063	-220.1781311035157	924.6164550781252	-1177.58984375	-212.5309143066407	948.8367309570315	-1083.377685546875	-251.9065551757813	1428.792602539063	-741.0413208007814	-310.9723510742188	1282.607421875	-584.5753173828126	-281.5905456542969	1242.237915039063	-587.3682861328126	-320.7165832519532	1224.49609375	-544.6627807617189	-321.5315246582032	1156.022094726563	-518.1448974609376	-393.6463928222657	1127.674682617188	-553.0136108398439	-263.0413513183594	967.6716308593752	-694.2239379882814	-222.3087158203126	942.7363281250002	-634.6397705078126	-203.9535827636719	961.3225097656252	-731.3626708984376	-199.0674591064454	943.8041992187502	-1031.69580078125	-197.6589813232422	958.2728271484377	-780.426696777344	-358.8002319335938	1034.04931640625	-909.7048950195315	-365.1187438964844	1001.3388671875	-936.384948730469	-364.4395141601563	1004.346130371094	-879.1470336914065	-276.1309509277344	719.7327880859376	-1108.33544921875	-254.5186614990235	638.3926391601564	-1107.94921875	-207.8536376953126	639.0145874023439	-1090.504516601563	-286.9602966308594	588.3811035156251	-1098.796875	-301.9258422851563	480.9069824218751	-1087.318969726563	-257.9539184570313	461.7960510253907	-975.5805664062502	-260.6955566406251	353.5691223144532	-1070.652954101563	-326.3836975097657	322.0979919433594	-1117.8955078125	-284.8171081542969	311.1026611328126	-1101.678344726563	-291.5742187500001	229.663803100586	-1077.718505859375	-380.2407531738282	95.79162597656251	-1096.900024414063	-341.2116088867188	100.5137405395508	-1019.8994140625	-428.7615051269532	50.78764724731447	-1052.09912109375	-215.7019653320313	51.43283081054689	-1062.461181640625	-222.7195434570313	56.41833496093751	-1111.033203125	-267.3650207519532	42.43504333496094	-1159.009643554688	-274.8164978027344	775.3244628906252	-702.6485595703126	-241.0043487548829	719.4020996093751	-701.0802612304689	-210.0303955078126	722.5642089843751	-713.7821655273439	-275.6981506347657	640.3331298828126	-704.9036254882814	-299.7434692382813	487.1279907226564	-726.6132812500001	-260.4875183105469	465.142303466797	-846.1502075195315	-262.0829162597657	332.0275268554688	-773.434509277344	-320.1470642089844	264.1721801757813	-709.1366577148439	-283.8854064941407	253.8526000976563	-738.7072143554689	-294.5718688964844	206.1350860595704	-769.9846801757815	-374.1028747558594	92.41876220703126	-726.1961669921876	-338.4486389160157	107.8338623046875	-806.5330200195315	-420.4197692871095	50.21186447143556	-780.6644287109377	-210.8178100585938	58.05541992187501	-761.0995483398439	-217.3077239990235	58.84133911132814	-719.5510864257814	-257.0210876464844	35.69546508789063	-670.0938720703126	-281.1505126953126	1605.181396484375	-815.0308837890627	
209	1.04	-183.6903991699219	1699.342041015625	-899.4671020507815	-315.2271118164063	1564.616455078125	-968.0561523437502	-351.8284912109376	1456.8876953125	-906.4145507812502	-376.0241394042969	1132.129638671875	-907.1715087890627	-209.2006225585938	1392.775756835938	-902.2349853515627	-252.0541534423829	1428.391845703125	-1061.982788085938	-298.8417968750001	1283.645751953125	-1227.440795898438	-264.1019592285157	1247.047241210938	-1219.965942382813	-296.0803833007813	1225.936767578125	-1267.544067382813	-290.6795043945313	1142.2626953125	-1296.100219726563	-369.5890197753907	1130.64404296875	-1247.87060546875	-258.1298217773438	962.8691406250002	-1124.190795898438	-220.2668914794922	924.5913696289065	-1177.5732421875	-212.6170349121094	948.8422851562502	-1083.410522460938	-251.8375091552735	1428.806640625	-741.0809326171876	-310.8366088867188	1282.608154296875	-584.5844726562501	-281.5115966796876	1242.210083007813	-587.4108276367189	-320.6191711425782	1224.476928710938	-544.6693725585939	-321.5057983398438	1155.963256835938	-518.1354980468751	-393.5777282714845	1127.671630859375	-553.0738525390626	-263.0087280273438	967.5818481445315	-694.1988525390626	-222.2451477050782	942.6883544921877	-634.6395874023439	-203.9083557128907	961.2966308593752	-731.3530883789064	-198.9616088867188	943.7725219726565	-1031.69189453125	-197.7141571044922	958.259704589844	-780.4787597656252	-358.8179016113282	1034.07958984375	-909.6737060546877	-365.1277465820313	1001.349426269531	-936.3472290039065	-364.4457702636719	1004.344055175781	-879.1461181640627	-276.1653747558594	719.9365844726564	-1108.305541992188	-254.5385284423829	638.4241333007814	-1107.964721679688	-208.0061645507813	639.0537109375001	-1090.608764648438	-287.0009765625001	588.3298339843751	-1098.793212890625	-301.8508605957032	480.9603271484376	-1087.2685546875	-257.9967346191407	461.8078613281251	-975.6420898437502	-261.2713012695313	353.5917053222657	-1071.038330078125	-326.4027404785157	322.0722045898438	-1117.8955078125	-284.8324584960938	311.1116333007813	-1101.637084960938	-291.6127319335938	229.6714324951172	-1077.721069335938	-380.2101135253907	95.72155761718751	-1096.923950195313	-341.2176208496094	100.4421844482422	-1019.93603515625	-428.7610473632814	50.79868316650392	-1052.078979492188	-215.7699279785157	51.50548553466798	-1062.4765625	-222.7460479736329	56.4288787841797	-1111.047485351563	-267.3295593261719	42.45628356933594	-1159.038330078125	-274.8089599609376	775.316589355469	-702.6255493164064	-240.9610595703126	719.3784179687501	-701.0950927734376	-210.0383911132813	722.5485229492189	-713.7849121093751	-275.6996459960938	640.3499755859376	-704.8980102539064	-299.7270202636719	487.1414794921876	-726.6082153320314	-260.7447204589844	465.1969299316407	-846.1873168945315	-262.0840454101563	332.0175476074219	-773.4403076171877	-320.1525268554688	264.1530456542969	-709.1306152343751	-284.2300109863282	253.9384155273438	-738.8798828125001	-294.5287475585938	206.186019897461	-769.9837036132815	-374.0906066894532	92.50576782226564	-726.1759033203126	-338.3853149414063	107.9733123779297	-806.5449829101565	-420.4101867675782	50.2167205810547	-780.6699829101565	-210.8028106689454	58.05574417114259	-761.1579589843751	-217.2602233886719	58.83876800537111	-719.5240478515626	-256.9734802246094	35.69944763183594	-670.0676269531251	-281.0907592773438	1605.191650390625	-814.976745605469	
